<svg xmlns="http://www.w3.org/2000/svg" style="overflow: visible;" data-bbox="46.55571104283876 214.54930055319954 295.19067523780745 102.83056585224205" viewBox="46.56 214.55 440.92 153.6"><path d="M491.2 231.4L389.5 55.3C381.9 42.1 367.8 34 352.6 34H149.2c-15.2 0-29.3 8.1-36.9 21.3L10.6 231.4  c-7.6 13.2-7.6 29.5 0 42.7l101.7 176.1c7.6 13.2 21.7 21.3 36.9 21.3h203.3c15.2 0 29.3-8.1 36.9-21.3l101.7-176.1  C498.8 260.9 498.8 244.6 491.2 231.4z" transform="matrix(0.3510761392782851, 0, 0, 0.3510761392782851, 44.8354360596888, 202.6127064813371)" fill="rgba(34, 87, 122, 1)" data-uid="o_f8055dg79_5"/><path d="M491.2 231.4L389.5 55.3C381.9 42.1 367.8 34 352.6 34H149.2c-15.2 0-29.3 8.1-36.9 21.3L10.6 231.4  c-7.6 13.2-7.6 29.5 0 42.7l101.7 176.1c7.6 13.2 21.7 21.3 36.9 21.3h203.3c15.2 0 29.3-8.1 36.9-21.3l101.7-176.1  C498.8 260.9 498.8 244.6 491.2 231.4z" transform="matrix(0.28684317460434133, 0, 0, 0.28684317460434133, 60.95109635656581, 218.84759600378754)" fill="rgba(56, 163, 165, 1)" data-uid="o_f8055dg79_6"/><path d="M491.2 231.4L389.5 55.3C381.9 42.1 367.8 34 352.6 34H149.2c-15.2 0-29.3 8.1-36.9 21.3L10.6 231.4  c-7.6 13.2-7.6 29.5 0 42.7l101.7 176.1c7.6 13.2 21.7 21.3 36.9 21.3h203.3c15.2 0 29.3-8.1 36.9-21.3l101.7-176.1  C498.8 260.9 498.8 244.6 491.2 231.4z" transform="matrix(0.2104488200188917, 0, 0, 0.2104488200188917, 80.11796501278353, 238.15626909187358)" fill="rgba(87, 204, 153, 1)" data-uid="o_f8055dg79_7"/><g transform="matrix(0.12984876845997884, 0, 0, 0.12984876845997884, 99.67701662560779, 258.10595952175214)" fill="rgba(199, 249, 204, 1)" data-uid="o_f8055dg79_8"><path d="M503.847 432.949l-89.897-89.897c-0.002-0.002-0.003-0.003-0.006-0.006s-0.003-0.003-0.006-0.006l-32.135-32.135    c-10.855-10.856-28.522-10.86-39.381 0l-3.939 3.939l-13.571-13.571c26.587-31.878 42.607-72.861 42.607-117.519    C367.517 82.432 285.085 0 183.762 0S0.009 82.432 0.009 183.754s82.43 183.754 183.753 183.754    c44.658 0 85.641-16.02 117.519-42.606l13.571 13.57l-3.94 3.94c-10.854 10.857-10.854 28.523 0.002 39.381l122.043 122.043    c10.881 10.883 28.499 10.886 39.383 0.001l31.506-31.506C514.705 461.474 514.705 443.808 503.847 432.949z M183.762 334.091    c-82.896 0-150.337-67.441-150.337-150.337S100.866 33.417 183.762 33.417S334.1 100.858 334.1 183.754    S266.658 334.091 183.762 334.091z M338.482 362.103l23.629-23.629l16.388 16.388l-23.629 23.629L338.482 362.103z     M452.649 476.269l-74.15-74.15l23.629-23.629l74.15 74.15L452.649 476.269z" transform="matrix(1, 0, 0, 1, 0, 0)" fill="rgba(199, 249, 204, 1)" data-uid="o_f8055dg79_9"/><path d="M183.76 66.835c-9.228 0-16.709 7.481-16.709 16.709c0 9.228 7.481 16.709 16.709 16.709    c46.045 0 83.505 37.457 83.505 83.5c0 9.228 7.481 16.709 16.709 16.709c9.228 0 16.709-7.481 16.709-16.709    C300.683 119.284 248.231 66.835 183.76 66.835z" transform="matrix(1, 0, 0, 1, 0, 0)" fill="rgba(199, 249, 204, 1)" data-uid="o_f8055dg79_10"/></g><path text="Tue" fill="rgba(34, 87, 122, 1)" space="preserve" text-anchor="middle" offset="0.5" font-scale="contain" font-size="48" font-family="Roboto" transform="matrix(1.857704402770301, 0, 0, 1.857704402770301, 289.8773005467302, 283.20133831630596)" font-style="normal" font-weight="700" data-uid="o_f8055dg79_11" data-fl-textpath="" d="M-11.758-34.13L-11.758-28.43L-22.208-28.43L-22.208 0L-29.238 0L-29.238-28.43L-39.548-28.43L-39.548-34.13L-11.758-34.13ZM 5.664 0L 5.474-2.58Q 2.964 0.47 -1.466 0.47L-1.466 0.47Q-5.546 0.47 -7.686-1.88Q-9.836-4.22 -9.876-8.74L-9.876-8.74L-9.876-25.36L-3.106-25.36L-3.106-8.98Q-3.106-5.02  0.504-5.02L 0.504-5.02Q 3.954-5.02  5.234-7.41L 5.234-7.41L 5.234-25.36L 12.034-25.36L 12.034 0L 5.664 0ZM 28.813 0.47L 28.813 0.47Q 23.243 0.47  19.733-2.95Q 16.233-6.38  16.233-12.07L 16.233-12.07L 16.233-12.73Q 16.233-16.55  17.703-19.56Q 19.183-22.57  21.893-24.2Q 24.593-25.83  28.063-25.83L 28.063-25.83Q 33.273-25.83  36.253-22.55Q 39.243-19.27  39.243-13.24L 39.243-13.24L 39.243-10.48L 23.093-10.48Q 23.423-7.99  25.083-6.49Q 26.733-4.99  29.263-4.99L 29.263-4.99Q 33.173-4.99  35.383-7.83L 35.383-7.83L 38.703-4.1Q 37.183-1.95  34.583-0.74Q 31.983 0.47  28.813 0.47ZM 28.043-20.34L 28.043-20.34Q 26.023-20.34  24.773-18.98Q 23.523-17.63  23.173-15.09L 23.173-15.09L 32.593-15.09L 32.593-15.63Q 32.543-17.88  31.373-19.11Q 30.203-20.34  28.043-20.34Z"/><path text="Search" fill="#57cc99" space="preserve" text-anchor="middle" offset="0.5" font-scale="contain" font-size="48" font-family="Roboto" transform="matrix(1.857704402770301, 0, 0, 1.857704402770301, 352.6788578271386, 367.27199914361927)" font-style="normal" font-weight="700" data-uid="o_f8055dg79_12" data-fl-textpath="" d="M-54.33-8.95L-54.33-8.95Q-54.33-10.95 -55.73-12.01Q-57.14-13.08 -60.8-14.26Q-64.45-15.45 -66.59-16.59L-66.59-16.59Q-72.4-19.73 -72.4-25.05L-72.4-25.05Q-72.4-27.82 -70.84-29.99Q-69.28-32.16 -66.36-33.38Q-63.44-34.59 -59.81-34.59L-59.81-34.59Q-56.16-34.59 -53.3-33.27Q-50.44-31.95 -48.86-29.53Q-47.27-27.12 -47.27-24.05L-47.27-24.05L-54.3-24.05Q-54.3-26.39 -55.78-27.69Q-57.26-28.99 -59.93-28.99L-59.93-28.99Q-62.51-28.99 -63.94-27.9Q-65.37-26.81 -65.37-25.03L-65.37-25.03Q-65.37-23.37 -63.69-22.24Q-62.02-21.12 -58.76-20.13L-58.76-20.13Q-52.76-18.33 -50.02-15.66Q-47.27-12.98 -47.27-9L-47.27-9Q-47.27-4.57 -50.62-2.05Q-53.98 0.47 -59.65 0.47L-59.65 0.47Q-63.59 0.47 -66.82-0.97Q-70.05-2.41 -71.75-4.92Q-73.45-7.43 -73.45-10.73L-73.45-10.73L-66.4-10.73Q-66.4-5.09 -59.65-5.09L-59.65-5.09Q-57.14-5.09 -55.73-6.11Q-54.33-7.13 -54.33-8.95ZM-31.293 0.47L-31.293 0.47Q-36.862 0.47 -40.373-2.95Q-43.873-6.38 -43.873-12.07L-43.873-12.07L-43.873-12.73Q-43.873-16.55 -42.403-19.56Q-40.922-22.57 -38.212-24.2Q-35.513-25.83 -32.043-25.83L-32.043-25.83Q-26.832-25.83 -23.852-22.55Q-20.863-19.27 -20.863-13.24L-20.863-13.24L-20.863-10.48L-37.013-10.48Q-36.682-7.99 -35.023-6.49Q-33.373-4.99 -30.843-4.99L-30.843-4.99Q-26.933-4.99 -24.723-7.83L-24.723-7.83L-21.402-4.1Q-22.922-1.95 -25.523-0.74Q-28.122 0.47 -31.293 0.47ZM-32.063-20.34L-32.063-20.34Q-34.082-20.34 -35.332-18.98Q-36.582-17.63 -36.932-15.09L-36.932-15.09L-27.512-15.09L-27.512-15.63Q-27.563-17.88 -28.733-19.11Q-29.902-20.34 -32.063-20.34ZM 4.523 0L-2.317 0Q-2.787-0.91 -2.997-2.27L-2.997-2.27Q-5.457 0.47 -9.397 0.47L-9.397 0.47Q-13.127 0.47 -15.577-1.69Q-18.027-3.84 -18.027-7.13L-18.027-7.13Q-18.027-11.16 -15.037-13.31Q-12.047-15.47 -6.397-15.49L-6.397-15.49L-3.277-15.49L-3.277-16.95Q-3.277-18.7 -4.187-19.76Q-5.087-20.81 -7.027-20.81L-7.027-20.81Q-8.737-20.81 -9.717-19.99Q-10.687-19.17 -10.687-17.74L-10.687-17.74L-17.457-17.74Q-17.457-19.95 -16.097-21.82Q-14.737-23.7 -12.257-24.76Q-9.777-25.83 -6.677-25.83L-6.677-25.83Q-1.987-25.83  0.763-23.47Q 3.513-21.12  3.513-16.85L 3.513-16.85L 3.513-5.86Q 3.543-2.25  4.523-0.4L 4.523-0.4L 4.523 0ZM-7.917-4.71L-7.917-4.71Q-6.417-4.71 -5.157-5.38Q-3.887-6.05 -3.277-7.17L-3.277-7.17L-3.277-11.53L-5.817-11.53Q-10.897-11.53 -11.227-8.02L-11.227-8.02L-11.247-7.62Q-11.247-6.35 -10.357-5.53Q-9.467-4.71 -7.917-4.71ZM 23.067-25.52L 22.967-19.01Q 21.587-19.2  20.527-19.2L 20.527-19.2Q 16.687-19.2  15.497-16.59L 15.497-16.59L 15.497 0L 8.717 0L 8.717-25.36L 15.117-25.36L 15.307-22.34Q 17.347-25.83  20.957-25.83L 20.957-25.83Q 22.077-25.83  23.067-25.52L 23.067-25.52ZM 36.33-4.99L 36.33-4.99Q 38.2-4.99  39.38-6.02Q 40.55-7.05  40.59-8.77L 40.59-8.77L 46.95-8.77Q 46.92-6.19  45.54-4.04Q 44.16-1.9  41.75-0.71Q 39.35 0.47  36.45 0.47L 36.45 0.47Q 31.01 0.47  27.87-2.99Q 24.73-6.45  24.73-12.54L 24.73-12.54L 24.73-12.98Q 24.73-18.84  27.84-22.34Q 30.96-25.83  36.4-25.83L 36.4-25.83Q 41.16-25.83  44.03-23.12Q 46.9-20.41  46.95-15.91L 46.95-15.91L 40.59-15.91Q 40.55-17.88  39.38-19.11Q 38.2-20.34  36.28-20.34L 36.28-20.34Q 33.91-20.34  32.71-18.62Q 31.5-16.9  31.5-13.03L 31.5-13.03L 31.5-12.33Q 31.5-8.41  32.7-6.7Q 33.89-4.99  36.33-4.99ZM 57.421-36L 57.421-22.59Q 60.121-25.83  64.191-25.83L 64.191-25.83Q 72.441-25.83  72.561-16.24L 72.561-16.24L 72.561 0L 65.791 0L 65.791-16.05Q 65.791-18.23  64.851-19.28Q 63.911-20.32  61.731-20.32L 61.731-20.32Q 58.761-20.32  57.421-18.02L 57.421-18.02L 57.421 0L 50.651 0L 50.651-36L 57.421-36Z"/>
      </svg>