<svg xmlns="http://www.w3.org/2000/svg" style="overflow: visible;" data-bbox="46.55571104283876 214.54930055319954 295.19067523780745 102.83056585224205" viewBox="46.56 214.55 172.73 153.6"><path d="M491.2 231.4L389.5 55.3C381.9 42.1 367.8 34 352.6 34H149.2c-15.2 0-29.3 8.1-36.9 21.3L10.6 231.4  c-7.6 13.2-7.6 29.5 0 42.7l101.7 176.1c7.6 13.2 21.7 21.3 36.9 21.3h203.3c15.2 0 29.3-8.1 36.9-21.3l101.7-176.1  C498.8 260.9 498.8 244.6 491.2 231.4z" transform="matrix(0.3510761392782851, 0, 0, 0.3510761392782851, 44.8354360596888, 202.6127064813371)" fill="rgba(34, 87, 122, 1)" data-uid="o_f8055dg79_5"/><path d="M491.2 231.4L389.5 55.3C381.9 42.1 367.8 34 352.6 34H149.2c-15.2 0-29.3 8.1-36.9 21.3L10.6 231.4  c-7.6 13.2-7.6 29.5 0 42.7l101.7 176.1c7.6 13.2 21.7 21.3 36.9 21.3h203.3c15.2 0 29.3-8.1 36.9-21.3l101.7-176.1  C498.8 260.9 498.8 244.6 491.2 231.4z" transform="matrix(0.28684317460434133, 0, 0, 0.28684317460434133, 60.95109635656581, 218.84759600378754)" fill="rgba(56, 163, 165, 1)" data-uid="o_f8055dg79_6"/><path d="M491.2 231.4L389.5 55.3C381.9 42.1 367.8 34 352.6 34H149.2c-15.2 0-29.3 8.1-36.9 21.3L10.6 231.4  c-7.6 13.2-7.6 29.5 0 42.7l101.7 176.1c7.6 13.2 21.7 21.3 36.9 21.3h203.3c15.2 0 29.3-8.1 36.9-21.3l101.7-176.1  C498.8 260.9 498.8 244.6 491.2 231.4z" transform="matrix(0.2104488200188917, 0, 0, 0.2104488200188917, 80.11796501278353, 238.15626909187358)" fill="rgba(87, 204, 153, 1)" data-uid="o_f8055dg79_7"/><g transform="matrix(0.12984876845997884, 0, 0, 0.12984876845997884, 99.67701662560779, 258.10595952175214)" fill="rgba(199, 249, 204, 1)" data-uid="o_f8055dg79_8"><path d="M503.847 432.949l-89.897-89.897c-0.002-0.002-0.003-0.003-0.006-0.006s-0.003-0.003-0.006-0.006l-32.135-32.135    c-10.855-10.856-28.522-10.86-39.381 0l-3.939 3.939l-13.571-13.571c26.587-31.878 42.607-72.861 42.607-117.519    C367.517 82.432 285.085 0 183.762 0S0.009 82.432 0.009 183.754s82.43 183.754 183.753 183.754    c44.658 0 85.641-16.02 117.519-42.606l13.571 13.57l-3.94 3.94c-10.854 10.857-10.854 28.523 0.002 39.381l122.043 122.043    c10.881 10.883 28.499 10.886 39.383 0.001l31.506-31.506C514.705 461.474 514.705 443.808 503.847 432.949z M183.762 334.091    c-82.896 0-150.337-67.441-150.337-150.337S100.866 33.417 183.762 33.417S334.1 100.858 334.1 183.754    S266.658 334.091 183.762 334.091z M338.482 362.103l23.629-23.629l16.388 16.388l-23.629 23.629L338.482 362.103z     M452.649 476.269l-74.15-74.15l23.629-23.629l74.15 74.15L452.649 476.269z" transform="matrix(1, 0, 0, 1, 0, 0)" fill="rgba(199, 249, 204, 1)" data-uid="o_f8055dg79_9"/><path d="M183.76 66.835c-9.228 0-16.709 7.481-16.709 16.709c0 9.228 7.481 16.709 16.709 16.709    c46.045 0 83.505 37.457 83.505 83.5c0 9.228 7.481 16.709 16.709 16.709c9.228 0 16.709-7.481 16.709-16.709    C300.683 119.284 248.231 66.835 183.76 66.835z" transform="matrix(1, 0, 0, 1, 0, 0)" fill="rgba(199, 249, 204, 1)" data-uid="o_f8055dg79_10"/></g></svg>